# xmcd CD database file
#
# Track frame offsets:
#	150
#	16345
#	49767
#	65045
#	82198
#	103432
#	126525
#	142130
#	161058
#	195258
#	216314
#	231917
#	252979
#	272081
#	292249
#	315860
#	336148
#
# Disc length: 4725 seconds
#
# Revision: 0
# Processed by: cddbd v1.5.1PL0 Copyright (c) Steve Scherf et al.
# Submitted via: CDex 1.51
#
DISCID=13127311
DTITLE=salseros de coyuca - lo mejor de la salsa
DYEAR=2004
DGENRE=Salsa
TTITLE0=espinita
TTITLE1=pedro navajas
TTITLE2=la pena que yo siento
TTITLE3=llorarás
TTITLE4=maria teresa y danilo
TTITLE5=me dejaste
TTITLE6=dime que pasó
TTITLE7=el adios
TTITLE8=juanito alimañas
TTITLE9=las calaveras
TTITLE10=luz angelica
TTITLE11=fuego en el 23
TTITLE12=nada de nada
TTITLE13=tu cariño
TTITLE14=vuelve a mí
TTITLE15=la agarró bajando
TTITLE16=chacharero
EXTD=YEAR: 2004
EXTT0=
EXTT1=
EXTT2=
EXTT3=
EXTT4=
EXTT5=
EXTT6=
EXTT7=
EXTT8=
EXTT9=
EXTT10=
EXTT11=
EXTT12=
EXTT13=
EXTT14=
EXTT15=
EXTT16=
PLAYORDER=
